STARTFONT 2.1
FONT -FontForge-Zen Tokyo Zoo-Book-R-Normal--20-200-72-72-P-93-ISO10646-1
SIZE 20 72 72
FONTBOUNDINGBOX 26 26 -2 -5
COMMENT "Generated by fontforge, http://fontforge.sourceforge.net"
COMMENT "Copyright 2021 The Zen Tokyo Zoo Project Authors (https://github.com/googlefonts/zen-tokyo-zoo)"
STARTPROPERTIES 39
FOUNDRY "FontForge"
FAMILY_NAME "Zen Tokyo Zoo"
WEIGHT_NAME "Book"
SLANT "R"
SETWIDTH_NAME "Normal"
ADD_STYLE_NAME ""
PIXEL_SIZE 20
POINT_SIZE 200
RESOLUTION_X 72
RESOLUTION_Y 72
SPACING "P"
AVERAGE_WIDTH 93
CHARSET_REGISTRY "ISO10646"
CHARSET_ENCODING "1"
FONTNAME_REGISTRY ""
CHARSET_COLLECTIONS "ISO10646-1"
FONT_NAME "ZenTokyoZoo-Regular"
FACE_NAME "Zen Tokyo Zoo Regular"
COPYRIGHT "Copyright 2021 The Zen Tokyo Zoo Project Authors (https://github.com/googlefonts/zen-tokyo-zoo)"
FONT_VERSION "1.002; ttfautohint (v1.8.3)"
FONT_ASCENT 16
FONT_DESCENT 4
UNDERLINE_POSITION -3
UNDERLINE_THICKNESS 1
X_HEIGHT 7
CAP_HEIGHT 15
RAW_ASCENT 800
RAW_DESCENT 200
NORM_SPACE 6
RELATIVE_WEIGHT 40
RELATIVE_SETWIDTH 50
SUPERSCRIPT_X 0
SUPERSCRIPT_Y 7
SUPERSCRIPT_SIZE 12
SUBSCRIPT_X 0
SUBSCRIPT_Y 1
SUBSCRIPT_SIZE 12
AVG_LOWERCASE_WIDTH 82
AVG_UPPERCASE_WIDTH 151
ENDPROPERTIES
CHARS 338
STARTCHAR CR
ENCODING 13
SWIDTH 600 0
DWIDTH 12 0
BBX 1 1 0 0
BITMAP
00
ENDCHAR
STARTCHAR space
ENCODING 32
SWIDTH 280 0
DWIDTH 6 0
BBX 1 1 0 0
BITMAP
00
ENDCHAR
STARTCHAR exclam
ENCODING 33
SWIDTH 196 0
DWIDTH 4 0
BBX 2 8 1 0
BITMAP
C0
C0
C0
C0
C0
C0
C0
C0
ENDCHAR
STARTCHAR quotedbl
ENCODING 34
SWIDTH 302 0
DWIDTH 6 0
BBX 6 3 0 5
BITMAP
B4
B4
B4
ENDCHAR
STARTCHAR numbersign
ENCODING 35
SWIDTH 513 0
DWIDTH 10 0
BBX 8 8 1 0
BITMAP
36
BF
BF
50
FB
FB
0C
6C
ENDCHAR
STARTCHAR dollar
ENCODING 36
SWIDTH 379 0
DWIDTH 8 0
BBX 6 10 1 -1
BITMAP
20
70
AC
E8
B0
6C
1C
EC
E8
20
ENDCHAR
STARTCHAR percent
ENCODING 37
SWIDTH 493 0
DWIDTH 10 0
BBX 9 8 0 0
BITMAP
7280
AD00
AE00
7C00
1700
1D80
3580
5380
ENDCHAR
STARTCHAR ampersand
ENCODING 38
SWIDTH 487 0
DWIDTH 10 0
BBX 8 8 1 0
BITMAP
38
5C
6C
54
6B
D5
AC
76
ENDCHAR
STARTCHAR quotesingle
ENCODING 39
SWIDTH 146 0
DWIDTH 3 0
BBX 2 3 0 5
BITMAP
C0
C0
C0
ENDCHAR
STARTCHAR parenleft
ENCODING 40
SWIDTH 210 0
DWIDTH 4 0
BBX 3 9 1 -1
BITMAP
A0
C0
C0
C0
C0
C0
C0
C0
A0
ENDCHAR
STARTCHAR parenright
ENCODING 41
SWIDTH 210 0
DWIDTH 4 0
BBX 4 9 0 -1
BITMAP
E0
60
50
50
50
50
50
60
E0
ENDCHAR
STARTCHAR asterisk
ENCODING 42
SWIDTH 358 0
DWIDTH 7 0
BBX 5 5 1 3
BITMAP
20
D8
88
58
50
ENDCHAR
STARTCHAR plus
ENCODING 43
SWIDTH 394 0
DWIDTH 8 0
BBX 6 6 1 1
BITMAP
30
30
B4
B4
30
30
ENDCHAR
STARTCHAR comma
ENCODING 44
SWIDTH 216 0
DWIDTH 4 0
BBX 3 3 1 -1
BITMAP
A0
C0
C0
ENDCHAR
STARTCHAR hyphen
ENCODING 45
SWIDTH 326 0
DWIDTH 7 0
BBX 5 2 1 3
BITMAP
F8
F8
ENDCHAR
STARTCHAR period
ENCODING 46
SWIDTH 176 0
DWIDTH 4 0
BBX 2 2 1 0
BITMAP
C0
C0
ENDCHAR
STARTCHAR slash
ENCODING 47
SWIDTH 298 0
DWIDTH 6 0
BBX 4 8 1 0
BITMAP
30
30
50
60
60
A0
C0
C0
ENDCHAR
STARTCHAR zero
ENCODING 48
SWIDTH 306 0
DWIDTH 6 0
BBX 5 8 1 0
BITMAP
F0
E8
E8
E8
E8
E8
E8
F0
ENDCHAR
STARTCHAR one
ENCODING 49
SWIDTH 306 0
DWIDTH 6 0
BBX 4 8 1 0
BITMAP
B0
B0
30
30
30
30
30
30
ENDCHAR
STARTCHAR two
ENCODING 50
SWIDTH 299 0
DWIDTH 6 0
BBX 4 8 1 0
BITMAP
F0
F0
30
50
A0
40
F0
F0
ENDCHAR
STARTCHAR three
ENCODING 51
SWIDTH 324 0
DWIDTH 6 0
BBX 5 8 1 0
BITMAP
70
E8
18
30
28
D8
E8
70
ENDCHAR
STARTCHAR four
ENCODING 52
SWIDTH 339 0
DWIDTH 7 0
BBX 5 8 1 0
BITMAP
30
50
60
A0
18
D8
D8
18
ENDCHAR
STARTCHAR five
ENCODING 53
SWIDTH 363 0
DWIDTH 7 0
BBX 5 8 1 0
BITMAP
78
78
A0
B0
A8
18
B8
70
ENDCHAR
STARTCHAR six
ENCODING 54
SWIDTH 306 0
DWIDTH 6 0
BBX 5 8 1 0
BITMAP
F0
E8
C0
E0
D0
E8
E8
F0
ENDCHAR
STARTCHAR seven
ENCODING 55
SWIDTH 298 0
DWIDTH 6 0
BBX 4 8 1 0
BITMAP
F0
F0
00
30
50
50
60
60
ENDCHAR
STARTCHAR eight
ENCODING 56
SWIDTH 306 0
DWIDTH 6 0
BBX 5 8 1 0
BITMAP
F0
E8
E8
A8
50
A8
E8
F0
ENDCHAR
STARTCHAR nine
ENCODING 57
SWIDTH 306 0
DWIDTH 6 0
BBX 5 8 1 0
BITMAP
F0
E8
E8
A8
68
28
E8
F0
ENDCHAR
STARTCHAR colon
ENCODING 58
SWIDTH 176 0
DWIDTH 4 0
BBX 2 5 1 0
BITMAP
C0
C0
00
C0
C0
ENDCHAR
STARTCHAR semicolon
ENCODING 59
SWIDTH 217 0
DWIDTH 4 0
BBX 3 6 1 -1
BITMAP
A0
A0
00
A0
C0
C0
ENDCHAR
STARTCHAR less
ENCODING 60
SWIDTH 450 0
DWIDTH 9 0
BBX 7 8 1 0
BITMAP
02
0E
34
68
D8
34
0E
02
ENDCHAR
STARTCHAR equal
ENCODING 61
SWIDTH 344 0
DWIDTH 7 0
BBX 5 5 1 1
BITMAP
F8
F8
00
F8
F8
ENDCHAR
STARTCHAR greater
ENCODING 62
SWIDTH 450 0
DWIDTH 9 0
BBX 7 8 1 0
BITMAP
C0
A0
58
36
2C
D0
E0
80
ENDCHAR
STARTCHAR question
ENCODING 63
SWIDTH 346 0
DWIDTH 7 0
BBX 5 8 1 0
BITMAP
70
E8
18
28
50
50
00
50
ENDCHAR
STARTCHAR at
ENCODING 64
SWIDTH 490 0
DWIDTH 10 0
BBX 8 8 1 0
BITMAP
3C
C2
9F
A5
BF
D6
B8
7C
ENDCHAR
STARTCHAR A
ENCODING 65
SWIDTH 798 0
DWIDTH 16 0
BBX 16 16 0 0
BITMAP
0340
05A0
05A0
06E0
0B50
0DD0
0EB0
1668
1A58
1C38
2DB4
37EC
581C
5FFA
6816
B00D
ENDCHAR
STARTCHAR B
ENCODING 66
SWIDTH 784 0
DWIDTH 16 0
BBX 14 16 1 0
BITMAP
EFE0
EFD0
E038
EFD8
E034
E034
EFF8
EFC8
E014
EFEC
E02C
E01C
E02C
EFD4
EFE8
EFF0
ENDCHAR
STARTCHAR C
ENCODING 67
SWIDTH 776 0
DWIDTH 16 0
BBX 14 16 1 0
BITMAP
0FF0
13E8
3FDC
6830
B000
D000
E000
E000
E000
E000
D000
B000
6830
3FDC
17E8
0FF0
ENDCHAR
STARTCHAR D
ENCODING 68
SWIDTH 806 0
DWIDTH 16 0
BBX 15 16 1 0
BITMAP
EFC0
EFA0
E070
EF98
E054
E02C
E01A
E01A
E01A
E01A
E01C
E034
E058
EFF0
EFA0
EFC0
ENDCHAR
STARTCHAR E
ENCODING 69
SWIDTH 677 0
DWIDTH 14 0
BBX 12 16 1 0
BITMAP
EFF0
EFF0
E000
EFF0
E000
E000
EFE0
E000
EFE0
EFE0
E000
E000
E000
EFF0
EFF0
EFF0
ENDCHAR
STARTCHAR F
ENCODING 70
SWIDTH 677 0
DWIDTH 14 0
BBX 12 16 1 0
BITMAP
EFF0
EFF0
E000
EFF0
E000
E000
EFE0
E000
EFE0
EFE0
E000
E000
E000
E000
E000
E000
ENDCHAR
STARTCHAR G
ENCODING 71
SWIDTH 872 0
DWIDTH 17 0
BBX 16 16 1 0
BITMAP
0FF0
13E8
3FDC
6836
B008
D000
E000
E0FF
E0FF
E000
D0FF
B00D
6836
3FDC
17E8
0FF0
ENDCHAR
STARTCHAR H
ENCODING 72
SWIDTH 781 0
DWIDTH 16 0
BBX 14 16 1 0
BITMAP
E034
E034
E034
E034
E034
E034
EFF4
E034
EFF4
EFF4
E034
E034
E034
E034
E034
E034
ENDCHAR
STARTCHAR I
ENCODING 73
SWIDTH 262 0
DWIDTH 5 0
BBX 3 16 1 0
BITMAP
E0
E0
E0
E0
E0
E0
E0
E0
E0
E0
E0
E0
E0
E0
E0
E0
ENDCHAR
STARTCHAR J
ENCODING 74
SWIDTH 674 0
DWIDTH 13 0
BBX 12 16 0 0
BITMAP
0070
0070
0070
0070
0070
0070
0070
0070
0070
0070
B070
B070
68B0
5750
2FE0
1F80
ENDCHAR
STARTCHAR K
ENCODING 75
SWIDTH 739 0
DWIDTH 15 0
BBX 14 16 1 0
BITMAP
E078
E0B0
E150
E1A0
E2C0
E180
E480
EB00
F500
EA80
E580
E340
E1A0
E150
E0B0
E05C
ENDCHAR
STARTCHAR L
ENCODING 76
SWIDTH 604 0
DWIDTH 12 0
BBX 11 16 1 0
BITMAP
E000
E000
E000
E000
E000
E000
E000
E000
E000
E000
E000
E000
E000
EFE0
EFE0
EFE0
ENDCHAR
STARTCHAR M
ENCODING 77
SWIDTH 909 0
DWIDTH 18 0
BBX 16 16 1 0
BITMAP
E007
E80F
E817
E42F
EC37
EA57
EDB7
EB57
E5A7
E347
E287
E187
E087
E007
E007
E007
ENDCHAR
STARTCHAR N
ENCODING 78
SWIDTH 796 0
DWIDTH 16 0
BBX 14 16 1 0
BITMAP
E02C
E82C
E82C
EC2C
EA2C
E62C
ED2C
EAAC
E5AC
E36C
E1EC
E16C
E0EC
E06C
E06C
E02C
ENDCHAR
STARTCHAR O
ENCODING 79
SWIDTH 894 0
DWIDTH 18 0
BBX 16 16 1 0
BITMAP
0FE0
13F8
3FD4
683A
B00D
D00B
E007
E007
E007
E007
D00B
B00D
683A
3FD4
17E8
0FF0
ENDCHAR
STARTCHAR P
ENCODING 80
SWIDTH 743 0
DWIDTH 15 0
BBX 13 16 1 0
BITMAP
EFE0
EFD0
E038
EFD8
E038
E038
EFF8
EFC8
E010
EFE0
E000
E000
E000
E000
E000
E000
ENDCHAR
STARTCHAR Q
ENCODING 81
SWIDTH 911 0
DWIDTH 18 0
BBX 17 16 1 0
BITMAP
0FE000
13F800
3FD400
683A00
B00D00
D00B00
E00700
E00700
E00700
E01700
D02B00
B05500
683A00
3FCD80
17E700
0FF200
ENDCHAR
STARTCHAR R
ENCODING 82
SWIDTH 745 0
DWIDTH 15 0
BBX 13 16 1 0
BITMAP
EFE0
EFD0
E038
EFD8
E038
E038
EFF8
EFC8
E010
EFE0
E1A0
E160
E0D0
E0B0
E068
E058
ENDCHAR
STARTCHAR S
ENCODING 83
SWIDTH 660 0
DWIDTH 13 0
BBX 12 16 1 0
BITMAP
3F80
4F40
BFA0
E0D0
E000
D800
A700
5CC0
33A0
0E60
01D0
00D0
E0D0
BFA0
5F40
3F80
ENDCHAR
STARTCHAR T
ENCODING 84
SWIDTH 641 0
DWIDTH 13 0
BBX 13 16 0 0
BITMAP
FFF8
FFF8
0000
FFF8
0700
0700
0700
0700
0700
0700
0700
0700
0700
0700
0700
0700
ENDCHAR
STARTCHAR U
ENCODING 85
SWIDTH 702 0
DWIDTH 14 0
BBX 12 16 1 0
BITMAP
E070
E070
E070
E070
E070
E070
E070
E070
E070
E070
E070
D0B0
B0D0
5FA0
2F40
1F80
ENDCHAR
STARTCHAR V
ENCODING 86
SWIDTH 758 0
DWIDTH 15 0
BBX 15 16 0 0
BITMAP
B01A
681C
682C
5834
3438
3458
2C68
1A70
1AB0
16D0
0D60
0B60
0BA0
06C0
05C0
0580
ENDCHAR
STARTCHAR W
ENCODING 87
SWIDTH 972 0
DWIDTH 19 0
BBX 19 16 0 0
BITMAP
B0B160
70D1A0
68E1A0
6971C0
5972C0
39AB40
35DB40
36DB80
2EDB80
1D7680
1BB680
1BAF00
169D00
0E9B00
0D1A00
0D1600
ENDCHAR
STARTCHAR X
ENCODING 88
SWIDTH 712 0
DWIDTH 14 0
BBX 14 16 0 0
BITMAP
6858
5468
2CB0
1AD0
16A0
0DC0
0B40
0680
0B40
0AC0
15A0
1B60
2CD0
34A8
5858
F834
ENDCHAR
STARTCHAR Y
ENCODING 89
SWIDTH 769 0
DWIDTH 15 0
BBX 15 16 0 0
BITMAP
B81E
582C
3454
2A68
16B0
0D50
0B60
05A0
0040
0340
0340
0340
0340
0340
0340
0340
ENDCHAR
STARTCHAR Z
ENCODING 90
SWIDTH 708 0
DWIDTH 14 0
BBX 14 16 0 0
BITMAP
3FB4
3F58
00A8
3FD0
0160
01A0
02C0
0580
0680
0B00
1500
1A00
2C00
35F8
5BF8
B7F8
ENDCHAR
STARTCHAR bracketleft
ENCODING 91
SWIDTH 320 0
DWIDTH 6 0
BBX 4 9 1 -1
BITMAP
D0
D0
C0
C0
C0
C0
C0
D0
D0
ENDCHAR
STARTCHAR backslash
ENCODING 92
SWIDTH 298 0
DWIDTH 6 0
BBX 4 8 1 0
BITMAP
C0
C0
A0
60
60
50
30
30
ENDCHAR
STARTCHAR bracketright
ENCODING 93
SWIDTH 320 0
DWIDTH 6 0
BBX 4 9 1 -1
BITMAP
F0
F0
30
30
30
30
30
F0
F0
ENDCHAR
STARTCHAR asciicircum
ENCODING 94
SWIDTH 309 0
DWIDTH 6 0
BBX 4 3 1 4
BITMAP
40
60
F0
ENDCHAR
STARTCHAR underscore
ENCODING 95
SWIDTH 472 0
DWIDTH 9 0
BBX 7 2 1 0
BITMAP
FE
FE
ENDCHAR
STARTCHAR grave
ENCODING 96
SWIDTH 195 0
DWIDTH 4 0
BBX 2 2 1 9
BITMAP
80
40
ENDCHAR
STARTCHAR a
ENCODING 97
SWIDTH 414 0
DWIDTH 8 0
BBX 8 8 0 0
BITMAP
18
2C
2C
3A
56
5E
7D
A3
ENDCHAR
STARTCHAR b
ENCODING 98
SWIDTH 423 0
DWIDTH 8 0
BBX 7 8 1 0
BITMAP
FC
FA
C6
FE
FA
C6
FA
FC
ENDCHAR
STARTCHAR c
ENCODING 99
SWIDTH 446 0
DWIDTH 9 0
BBX 7 8 1 0
BITMAP
3C
FA
C4
C0
C0
C4
FA
3C
ENDCHAR
STARTCHAR d
ENCODING 100
SWIDTH 450 0
DWIDTH 9 0
BBX 7 8 1 0
BITMAP
FC
FA
C6
C6
C6
C6
FA
FC
ENDCHAR
STARTCHAR e
ENCODING 101
SWIDTH 363 0
DWIDTH 7 0
BBX 6 8 1 0
BITMAP
FC
FC
C0
F8
F8
C0
FC
FC
ENDCHAR
STARTCHAR f
ENCODING 102
SWIDTH 365 0
DWIDTH 7 0
BBX 6 8 1 0
BITMAP
FC
FC
C0
F8
F8
C0
C0
C0
ENDCHAR
STARTCHAR g
ENCODING 103
SWIDTH 483 0
DWIDTH 10 0
BBX 8 8 1 0
BITMAP
3C
FB
C4
CF
CF
C5
FA
3C
ENDCHAR
STARTCHAR h
ENCODING 104
SWIDTH 428 0
DWIDTH 9 0
BBX 7 8 1 0
BITMAP
C6
C6
C6
FA
FA
C6
C6
C6
ENDCHAR
STARTCHAR i
ENCODING 105
SWIDTH 176 0
DWIDTH 4 0
BBX 2 8 1 0
BITMAP
C0
C0
C0
C0
C0
C0
C0
C0
ENDCHAR
STARTCHAR j
ENCODING 106
SWIDTH 390 0
DWIDTH 8 0
BBX 6 8 1 0
BITMAP
0C
0C
0C
0C
0C
CC
B4
78
ENDCHAR
STARTCHAR k
ENCODING 107
SWIDTH 381 0
DWIDTH 8 0
BBX 6 8 1 0
BITMAP
DC
D8
E8
F0
D0
F0
D8
DC
ENDCHAR
STARTCHAR l
ENCODING 108
SWIDTH 330 0
DWIDTH 7 0
BBX 5 8 1 0
BITMAP
C0
C0
C0
C0
C0
C0
F8
F8
ENDCHAR
STARTCHAR m
ENCODING 109
SWIDTH 501 0
DWIDTH 10 0
BBX 8 8 1 0
BITMAP
C3
E7
DB
EF
DB
CB
C3
C3
ENDCHAR
STARTCHAR n
ENCODING 110
SWIDTH 444 0
DWIDTH 9 0
BBX 7 8 1 0
BITMAP
C6
E6
D6
F6
EE
D6
CE
C6
ENDCHAR
STARTCHAR o
ENCODING 111
SWIDTH 494 0
DWIDTH 10 0
BBX 8 8 1 0
BITMAP
3C
FE
C3
C3
C3
C3
FE
3C
ENDCHAR
STARTCHAR p
ENCODING 112
SWIDTH 412 0
DWIDTH 8 0
BBX 7 8 1 0
BITMAP
FC
FA
C6
FA
FC
C0
C0
C0
ENDCHAR
STARTCHAR q
ENCODING 113
SWIDTH 494 0
DWIDTH 10 0
BBX 8 8 1 0
BITMAP
3C
FE
C3
C3
C7
CB
FD
3E
ENDCHAR
STARTCHAR r
ENCODING 114
SWIDTH 412 0
DWIDTH 8 0
BBX 7 8 1 0
BITMAP
FC
FA
C6
FA
FC
D4
CC
CE
ENDCHAR
STARTCHAR s
ENCODING 115
SWIDTH 379 0
DWIDTH 8 0
BBX 6 8 1 0
BITMAP
78
F4
C8
B8
74
0C
F4
78
ENDCHAR
STARTCHAR t
ENCODING 116
SWIDTH 349 0
DWIDTH 7 0
BBX 7 8 0 0
BITMAP
FE
FE
28
28
28
28
28
28
ENDCHAR
STARTCHAR u
ENCODING 117
SWIDTH 400 0
DWIDTH 8 0
BBX 6 8 1 0
BITMAP
CC
CC
CC
CC
CC
CC
B4
78
ENDCHAR
STARTCHAR v
ENCODING 118
SWIDTH 394 0
DWIDTH 8 0
BBX 8 8 0 0
BITMAP
A5
66
66
5A
3C
34
28
18
ENDCHAR
STARTCHAR w
ENCODING 119
SWIDTH 521 0
DWIDTH 10 0
BBX 10 8 0 0
BITMAP
CCC0
ACC0
6F40
7780
5580
5D80
3B00
3300
ENDCHAR
STARTCHAR x
ENCODING 120
SWIDTH 369 0
DWIDTH 7 0
BBX 7 8 0 0
BITMAP
EA
5C
34
28
38
54
6C
A6
ENDCHAR
STARTCHAR y
ENCODING 121
SWIDTH 422 0
DWIDTH 8 0
BBX 8 8 0 0
BITMAP
A7
56
2A
3C
00
18
18
18
ENDCHAR
STARTCHAR z
ENCODING 122
SWIDTH 409 0
DWIDTH 8 0
BBX 6 8 1 0
BITMAP
FC
FC
14
28
50
A0
FC
FC
ENDCHAR
STARTCHAR braceleft
ENCODING 123
SWIDTH 443 0
DWIDTH 9 0
BBX 7 9 1 -1
BITMAP
2E
2E
28
E8
E8
28
28
2E
2E
ENDCHAR
STARTCHAR bar
ENCODING 124
SWIDTH 196 0
DWIDTH 4 0
BBX 2 9 1 -1
BITMAP
C0
C0
C0
C0
C0
C0
C0
C0
C0
ENDCHAR
STARTCHAR braceright
ENCODING 125
SWIDTH 506 0
DWIDTH 10 0
BBX 7 9 2 -1
BITMAP
D8
D8
18
1E
1E
18
18
D8
D8
ENDCHAR
STARTCHAR asciitilde
ENCODING 126
SWIDTH 450 0
DWIDTH 9 0
BBX 7 3 1 2
BITMAP
F2
EE
9E
ENDCHAR
STARTCHAR uni00A0
ENCODING 160
SWIDTH 280 0
DWIDTH 6 0
BBX 1 1 0 0
BITMAP
00
ENDCHAR
STARTCHAR exclamdown
ENCODING 161
SWIDTH 196 0
DWIDTH 4 0
BBX 2 8 1 -2
BITMAP
C0
C0
C0
C0
C0
C0
C0
C0
ENDCHAR
STARTCHAR cent
ENCODING 162
SWIDTH 305 0
DWIDTH 6 0
BBX 6 9 0 -1
BITMAP
30
38
7C
C0
C0
C0
7C
38
30
ENDCHAR
STARTCHAR sterling
ENCODING 163
SWIDTH 408 0
DWIDTH 8 0
BBX 8 8 0 0
BITMAP
78
BC
00
FC
FC
60
FF
FF
ENDCHAR
STARTCHAR currency
ENCODING 164
SWIDTH 401 0
DWIDTH 8 0
BBX 6 6 1 1
BITMAP
4C
B4
78
78
B4
4C
ENDCHAR
STARTCHAR yen
ENCODING 165
SWIDTH 423 0
DWIDTH 8 0
BBX 8 8 0 0
BITMAP
A7
56
2A
3C
00
7A
7A
18
ENDCHAR
STARTCHAR brokenbar
ENCODING 166
SWIDTH 196 0
DWIDTH 4 0
BBX 2 9 1 0
BITMAP
C0
C0
C0
C0
00
C0
C0
C0
C0
ENDCHAR
STARTCHAR section
ENCODING 167
SWIDTH 322 0
DWIDTH 6 0
BBX 5 8 1 0
BITMAP
F8
C0
B0
E8
F8
C8
38
F0
ENDCHAR
STARTCHAR dieresis
ENCODING 168
SWIDTH 287 0
DWIDTH 6 0
BBX 4 1 1 10
BITMAP
B0
ENDCHAR
STARTCHAR copyright
ENCODING 169
SWIDTH 493 0
DWIDTH 10 0
BBX 8 9 1 0
BITMAP
3C
42
81
9D
A1
A1
9D
42
3C
ENDCHAR
STARTCHAR ordfeminine
ENCODING 170
SWIDTH 331 0
DWIDTH 7 0
BBX 5 4 1 4
BITMAP
70
70
F0
F8
ENDCHAR
STARTCHAR guillemotleft
ENCODING 171
SWIDTH 298 0
DWIDTH 6 0
BBX 4 4 1 2
BITMAP
D0
70
A0
50
ENDCHAR
STARTCHAR logicalnot
ENCODING 172
SWIDTH 420 0
DWIDTH 8 0
BBX 7 4 1 1
BITMAP
FE
FE
0A
0A
ENDCHAR
STARTCHAR uni00AD
ENCODING 173
SWIDTH 326 0
DWIDTH 7 0
BBX 5 2 1 3
BITMAP
F8
F8
ENDCHAR
STARTCHAR registered
ENCODING 174
SWIDTH 493 0
DWIDTH 10 0
BBX 8 9 1 0
BITMAP
3C
42
81
BD
B9
A9
A5
42
3C
ENDCHAR
STARTCHAR macron
ENCODING 175
SWIDTH 331 0
DWIDTH 7 0
BBX 5 1 1 9
BITMAP
F8
ENDCHAR
STARTCHAR degree
ENCODING 176
SWIDTH 298 0
DWIDTH 6 0
BBX 4 4 1 4
BITMAP
60
F0
F0
60
ENDCHAR
STARTCHAR plusminus
ENCODING 177
SWIDTH 418 0
DWIDTH 8 0
BBX 7 8 1 0
BITMAP
30
30
F4
F4
30
00
FE
FE
ENDCHAR
STARTCHAR uni00B2
ENCODING 178
SWIDTH 233 0
DWIDTH 5 0
BBX 3 4 1 4
BITMAP
C0
60
C0
E0
ENDCHAR
STARTCHAR uni00B3
ENCODING 179
SWIDTH 228 0
DWIDTH 5 0
BBX 3 4 1 4
BITMAP
E0
40
60
C0
ENDCHAR
STARTCHAR acute
ENCODING 180
SWIDTH 195 0
DWIDTH 4 0
BBX 2 2 1 9
BITMAP
40
80
ENDCHAR
STARTCHAR uni00B5
ENCODING 181
SWIDTH 506 0
DWIDTH 10 0
BBX 9 10 1 -2
BITMAP
CA00
CA00
CA00
CA00
CA00
CA00
F500
FB80
C000
C000
ENDCHAR
STARTCHAR paragraph
ENCODING 182
SWIDTH 435 0
DWIDTH 9 0
BBX 8 8 0 0
BITMAP
7F
BF
A0
7D
3D
0D
0D
0D
ENDCHAR
STARTCHAR periodcentered
ENCODING 183
SWIDTH 176 0
DWIDTH 4 0
BBX 2 2 1 3
BITMAP
C0
C0
ENDCHAR
STARTCHAR cedilla
ENCODING 184
SWIDTH 261 0
DWIDTH 5 0
BBX 3 4 1 -4
BITMAP
40
E0
20
E0
ENDCHAR
STARTCHAR uni00B9
ENCODING 185
SWIDTH 218 0
DWIDTH 4 0
BBX 2 4 1 4
BITMAP
C0
40
40
40
ENDCHAR
STARTCHAR ordmasculine
ENCODING 186
SWIDTH 335 0
DWIDTH 7 0
BBX 5 4 1 4
BITMAP
70
98
E8
70
ENDCHAR
STARTCHAR guillemotright
ENCODING 187
SWIDTH 298 0
DWIDTH 6 0
BBX 4 4 1 2
BITMAP
B0
E0
50
A0
ENDCHAR
STARTCHAR onequarter
ENCODING 188
SWIDTH 429 0
DWIDTH 9 0
BBX 7 8 1 0
BITMAP
C4
CC
58
58
14
2C
6E
4E
ENDCHAR
STARTCHAR onehalf
ENCODING 189
SWIDTH 437 0
DWIDTH 9 0
BBX 7 8 1 0
BITMAP
C4
48
58
56
3E
66
4E
CE
ENDCHAR
STARTCHAR threequarters
ENCODING 190
SWIDTH 409 0
DWIDTH 8 0
BBX 7 8 1 0
BITMAP
C4
48
D8
D0
34
68
4E
CE
ENDCHAR
STARTCHAR questiondown
ENCODING 191
SWIDTH 346 0
DWIDTH 7 0
BBX 5 8 1 -1
BITMAP
50
00
50
50
A0
C0
F8
70
ENDCHAR
STARTCHAR Agrave
ENCODING 192
SWIDTH 798 0
DWIDTH 16 0
BBX 16 21 0 0
BITMAP
0600
0500
0300
0380
0000
0340
05A0
05A0
06E0
0B50
0DD0
0EB0
1668
1A58
1C38
2DB4
37EC
581C
5FFA
6816
B00D
ENDCHAR
STARTCHAR Aacute
ENCODING 193
SWIDTH 798 0
DWIDTH 16 0
BBX 16 21 0 0
BITMAP
0050
00A0
00C0
0140
0000
0340
05A0
05A0
06E0
0B50
0DD0
0EB0
1668
1A58
1C38
2DB4
37EC
581C
5FFA
6816
B00D
ENDCHAR
STARTCHAR Acircumflex
ENCODING 194
SWIDTH 798 0
DWIDTH 16 0
BBX 16 21 0 0
BITMAP
0280
0540
06A0
0C50
1000
0340
05A0
05A0
06E0
0B50
0DD0
0EB0
1668
1A58
1C38
2DB4
37EC
581C
5FFA
6816
B00D
ENDCHAR
STARTCHAR Atilde
ENCODING 195
SWIDTH 798 0
DWIDTH 16 0
BBX 16 20 0 0
BITMAP
0610
0990
0860
0000
0340
05A0
05A0
06E0
0B50
0DD0
0EB0
1668
1A58
1C38
2DB4
37EC
581C
5FFA
6816
B00D
ENDCHAR
STARTCHAR Adieresis
ENCODING 196
SWIDTH 798 0
DWIDTH 16 0
BBX 16 21 0 0
BITMAP
0C30
1248
1248
0C30
0000
0340
05A0
05A0
06E0
0B50
0DD0
0EB0
1668
1A58
1C38
2DB4
37EC
581C
5FFA
6816
B00D
ENDCHAR
STARTCHAR Aring
ENCODING 197
SWIDTH 798 0
DWIDTH 16 0
BBX 16 21 0 0
BITMAP
0180
0240
0240
0180
0000
0340
05A0
05A0
06E0
0B50
0DD0
0EB0
1668
1A58
1C38
2DB4
37EC
581C
5FFA
6816
B00D
ENDCHAR
STARTCHAR AE
ENCODING 198
SWIDTH 1078 0
DWIDTH 22 0
BBX 21 16 0 0
BITMAP
00B7F8
0177F8
017000
0177F8
02E800
036800
05EFF0
06D800
0B5FF0
0D3BF0
163800
1DB800
2FB400
3837F8
5BF7F8
B02FF8
ENDCHAR
STARTCHAR Ccedilla
ENCODING 199
SWIDTH 776 0
DWIDTH 16 0
BBX 14 21 1 -5
BITMAP
0FF0
13E8
3FDC
6830
B000
D000
E000
E000
E000
E000
D000
B000
6830
3FDC
17E8
0FF0
0200
0300
0480
0080
0700
ENDCHAR
STARTCHAR Egrave
ENCODING 200
SWIDTH 677 0
DWIDTH 14 0
BBX 12 21 1 0
BITMAP
0E00
0500
0300
0380
0000
EFF0
EFF0
E000
EFF0
E000
E000
EFE0
E000
EFE0
EFE0
E000
E000
E000
EFF0
EFF0
EFF0
ENDCHAR
STARTCHAR Eacute
ENCODING 201
SWIDTH 677 0
DWIDTH 14 0
BBX 12 21 1 0
BITMAP
0280
0300
0500
0E00
0000
EFF0
EFF0
E000
EFF0
E000
E000
EFE0
E000
EFE0
EFE0
E000
E000
E000
EFF0
EFF0
EFF0
ENDCHAR
STARTCHAR Ecircumflex
ENCODING 202
SWIDTH 677 0
DWIDTH 14 0
BBX 12 21 1 0
BITMAP
0700
0A80
1540
38E0
0000
EFF0
EFF0
E000
EFF0
E000
E000
EFE0
E000
EFE0
EFE0
E000
E000
E000
EFF0
EFF0
EFF0
ENDCHAR
STARTCHAR Edieresis
ENCODING 203
SWIDTH 677 0
DWIDTH 14 0
BBX 12 21 1 0
BITMAP
18E0
2510
2510
18E0
0000
EFF0
EFF0
E000
EFF0
E000
E000
EFE0
E000
EFE0
EFE0
E000
E000
E000
EFF0
EFF0
EFF0
ENDCHAR
STARTCHAR Igrave
ENCODING 204
SWIDTH 262 0
DWIDTH 5 0
BBX 5 21 -1 0
BITMAP
E0
60
50
38
00
38
38
38
38
38
38
38
38
38
38
38
38
38
38
38
38
ENDCHAR
STARTCHAR Iacute
ENCODING 205
SWIDTH 262 0
DWIDTH 5 0
BBX 5 21 1 0
BITMAP
38
30
50
60
00
E0
E0
E0
E0
E0
E0
E0
E0
E0
E0
E0
E0
E0
E0
E0
E0
ENDCHAR
STARTCHAR Icircumflex
ENCODING 206
SWIDTH 262 0
DWIDTH 5 0
BBX 9 21 -2 0
BITMAP
1C00
2A00
5500
A380
0000
1C00
1C00
1C00
1C00
1C00
1C00
1C00
1C00
1C00
1C00
1C00
1C00
1C00
1C00
1C00
1C00
ENDCHAR
STARTCHAR Idieresis
ENCODING 207
SWIDTH 262 0
DWIDTH 5 0
BBX 9 21 -2 0
BITMAP
6300
9480
9480
6300
0000
1C00
1C00
1C00
1C00
1C00
1C00
1C00
1C00
1C00
1C00
1C00
1C00
1C00
1C00
1C00
1C00
ENDCHAR
STARTCHAR Eth
ENCODING 208
SWIDTH 856 0
DWIDTH 17 0
BBX 17 16 0 0
BITMAP
3BF000
3BE800
381C00
3BE600
381500
380B00
FF0680
000680
FF0680
FF0680
380700
380D00
381600
3BFC00
3BE800
3BF000
ENDCHAR
STARTCHAR Ntilde
ENCODING 209
SWIDTH 796 0
DWIDTH 16 0
BBX 14 20 1 0
BITMAP
0C20
1220
11C0
0000
E02C
E82C
E82C
EC2C
EA2C
E62C
ED2C
EAAC
E5AC
E36C
E1EC
E16C
E0EC
E06C
E06C
E02C
ENDCHAR
STARTCHAR Ograve
ENCODING 210
SWIDTH 894 0
DWIDTH 18 0
BBX 16 21 1 0
BITMAP
0E00
0500
0300
0380
0000
0FE0
13F8
3FD4
683A
B00D
D00B
E007
E007
E007
E007
D00B
B00D
683A
3FD4
17E8
0FF0
ENDCHAR
STARTCHAR Oacute
ENCODING 211
SWIDTH 894 0
DWIDTH 18 0
BBX 16 21 1 0
BITMAP
0060
00C0
0140
0180
0000
0FE0
13F8
3FD4
683A
B00D
D00B
E007
E007
E007
E007
D00B
B00D
683A
3FD4
17E8
0FF0
ENDCHAR
STARTCHAR Ocircumflex
ENCODING 212
SWIDTH 894 0
DWIDTH 18 0
BBX 16 21 1 0
BITMAP
0280
0540
0AA0
1C50
0000
0FE0
13F8
3FD4
683A
B00D
D00B
E007
E007
E007
E007
D00B
B00D
683A
3FD4
17E8
0FF0
ENDCHAR
STARTCHAR Otilde
ENCODING 213
SWIDTH 894 0
DWIDTH 18 0
BBX 16 20 1 0
BITMAP
0610
0910
08E0
0000
0FE0
13F8
3FD4
683A
B00D
D00B
E007
E007
E007
E007
D00B
B00D
683A
3FD4
17E8
0FF0
ENDCHAR
STARTCHAR Odieresis
ENCODING 214
SWIDTH 894 0
DWIDTH 18 0
BBX 16 21 1 0
BITMAP
0C30
1248
1248
0C30
0000
0FE0
13F8
3FD4
683A
B00D
D00B
E007
E007
E007
E007
D00B
B00D
683A
3FD4
17E8
0FF0
ENDCHAR
STARTCHAR multiply
ENCODING 215
SWIDTH 370 0
DWIDTH 7 0
BBX 6 6 1 1
BITMAP
48
D4
A8
50
BC
48
ENDCHAR
STARTCHAR Oslash
ENCODING 216
SWIDTH 894 0
DWIDTH 18 0
BBX 16 17 1 -1
BITMAP
0FE8
17F6
2BDA
7C2E
B05B
D06B
E0D7
E567
E5E7
EB07
D50B
EA0D
AC3A
57D4
6BF8
37E0
1000
ENDCHAR
STARTCHAR Ugrave
ENCODING 217
SWIDTH 702 0
DWIDTH 14 0
BBX 12 21 1 0
BITMAP
2800
1400
0C00
0A00
0000
E070
E070
E070
E070
E070
E070
E070
E070
E070
E070
E070
D0B0
B0D0
5FA0
2F40
1F80
ENDCHAR
STARTCHAR Uacute
ENCODING 218
SWIDTH 702 0
DWIDTH 14 0
BBX 12 21 1 0
BITMAP
01C0
0280
0300
0500
0000
E070
E070
E070
E070
E070
E070
E070
E070
E070
E070
E070
D0B0
B0D0
5FA0
2F40
1F80
ENDCHAR
STARTCHAR Ucircumflex
ENCODING 219
SWIDTH 702 0
DWIDTH 14 0
BBX 12 21 1 0
BITMAP
0A00
1500
1A80
3140
0000
E070
E070
E070
E070
E070
E070
E070
E070
E070
E070
E070
D0B0
B0D0
5FA0
2F40
1F80
ENDCHAR
STARTCHAR Udieresis
ENCODING 220
SWIDTH 702 0
DWIDTH 14 0
BBX 12 21 1 0
BITMAP
30C0
4920
4920
30C0
0000
E070
E070
E070
E070
E070
E070
E070
E070
E070
E070
E070
D0B0
B0D0
5FA0
2F40
1F80
ENDCHAR
STARTCHAR Yacute
ENCODING 221
SWIDTH 769 0
DWIDTH 15 0
BBX 15 21 0 0
BITMAP
00E0
00C0
0140
0180
0200
B81E
582C
3454
2A68
16B0
0D50
0B60
05A0
0040
0340
0340
0340
0340
0340
0340
0340
ENDCHAR
STARTCHAR Thorn
ENCODING 222
SWIDTH 743 0
DWIDTH 15 0
BBX 13 16 1 0
BITMAP
E000
E000
E000
EFE0
EFD0
E038
EFD8
E038
E038
EFF8
EFC8
E010
EFE0
E000
E000
E000
ENDCHAR
STARTCHAR germandbls
ENCODING 223
SWIDTH 424 0
DWIDTH 8 0
BBX 7 8 1 0
BITMAP
7C
FC
CA
DC
DA
C6
DA
DC
ENDCHAR
STARTCHAR agrave
ENCODING 224
SWIDTH 414 0
DWIDTH 8 0
BBX 8 11 0 0
BITMAP
10
18
00
18
2C
2C
3A
56
5E
7D
A3
ENDCHAR
STARTCHAR aacute
ENCODING 225
SWIDTH 414 0
DWIDTH 8 0
BBX 8 11 0 0
BITMAP
04
08
00
18
2C
2C
3A
56
5E
7D
A3
ENDCHAR
STARTCHAR acircumflex
ENCODING 226
SWIDTH 414 0
DWIDTH 8 0
BBX 8 11 0 0
BITMAP
10
24
00
18
2C
2C
3A
56
5E
7D
A3
ENDCHAR
STARTCHAR atilde
ENCODING 227
SWIDTH 414 0
DWIDTH 8 0
BBX 8 11 0 0
BITMAP
32
2C
00
18
2C
2C
3A
56
5E
7D
A3
ENDCHAR
STARTCHAR adieresis
ENCODING 228
SWIDTH 414 0
DWIDTH 8 0
BBX 8 11 0 0
BITMAP
34
00
00
18
2C
2C
3A
56
5E
7D
A3
ENDCHAR
STARTCHAR aring
ENCODING 229
SWIDTH 414 0
DWIDTH 8 0
BBX 8 12 0 0
BITMAP
08
14
08
00
18
2C
2C
3A
56
5E
7D
A3
ENDCHAR
STARTCHAR ae
ENCODING 230
SWIDTH 593 0
DWIDTH 12 0
BBX 12 8 0 0
BITMAP
0BF0
0FF0
1600
2FE0
35E0
5500
5DF0
A5F0
ENDCHAR
STARTCHAR ccedilla
ENCODING 231
SWIDTH 446 0
DWIDTH 9 0
BBX 7 12 1 -4
BITMAP
3C
FA
C4
C0
C0
C4
FA
3C
10
38
08
38
ENDCHAR
STARTCHAR egrave
ENCODING 232
SWIDTH 363 0
DWIDTH 7 0
BBX 6 11 1 0
BITMAP
20
30
00
FC
FC
C0
F8
F8
C0
FC
FC
ENDCHAR
STARTCHAR eacute
ENCODING 233
SWIDTH 363 0
DWIDTH 7 0
BBX 6 11 1 0
BITMAP
08
10
00
FC
FC
C0
F8
F8
C0
FC
FC
ENDCHAR
STARTCHAR ecircumflex
ENCODING 234
SWIDTH 363 0
DWIDTH 7 0
BBX 6 11 1 0
BITMAP
20
58
00
FC
FC
C0
F8
F8
C0
FC
FC
ENDCHAR
STARTCHAR edieresis
ENCODING 235
SWIDTH 363 0
DWIDTH 7 0
BBX 6 11 1 0
BITMAP
68
00
00
FC
FC
C0
F8
F8
C0
FC
FC
ENDCHAR
STARTCHAR igrave
ENCODING 236
SWIDTH 176 0
DWIDTH 4 0
BBX 3 11 0 0
BITMAP
80
40
00
60
60
60
60
60
60
60
60
ENDCHAR
STARTCHAR iacute
ENCODING 237
SWIDTH 176 0
DWIDTH 4 0
BBX 3 11 1 0
BITMAP
60
40
00
C0
C0
C0
C0
C0
C0
C0
C0
ENDCHAR
STARTCHAR icircumflex
ENCODING 238
SWIDTH 176 0
DWIDTH 4 0
BBX 4 11 0 0
BITMAP
40
B0
00
60
60
60
60
60
60
60
60
ENDCHAR
STARTCHAR idieresis
ENCODING 239
SWIDTH 176 0
DWIDTH 4 0
BBX 4 11 0 0
BITMAP
B0
00
00
60
60
60
60
60
60
60
60
ENDCHAR
STARTCHAR eth
ENCODING 240
SWIDTH 455 0
DWIDTH 9 0
BBX 9 8 0 0
BITMAP
7E00
7D00
6300
0280
F280
6300
7D00
7E00
ENDCHAR
STARTCHAR ntilde
ENCODING 241
SWIDTH 444 0
DWIDTH 9 0
BBX 7 11 1 0
BITMAP
24
58
00
C6
E6
D6
F6
EE
D6
CE
C6
ENDCHAR
STARTCHAR ograve
ENCODING 242
SWIDTH 494 0
DWIDTH 10 0
BBX 8 11 1 0
BITMAP
30
10
00
3C
FE
C3
C3
C3
C3
FE
3C
ENDCHAR
STARTCHAR oacute
ENCODING 243
SWIDTH 494 0
DWIDTH 10 0
BBX 8 11 1 0
BITMAP
0C
08
00
3C
FE
C3
C3
C3
C3
FE
3C
ENDCHAR
STARTCHAR ocircumflex
ENCODING 244
SWIDTH 494 0
DWIDTH 10 0
BBX 8 11 1 0
BITMAP
10
2C
00
3C
FE
C3
C3
C3
C3
FE
3C
ENDCHAR
STARTCHAR otilde
ENCODING 245
SWIDTH 494 0
DWIDTH 10 0
BBX 8 11 1 0
BITMAP
34
4C
00
3C
FE
C3
C3
C3
C3
FE
3C
ENDCHAR
STARTCHAR odieresis
ENCODING 246
SWIDTH 494 0
DWIDTH 10 0
BBX 8 11 1 0
BITMAP
2C
00
00
3C
FE
C3
C3
C3
C3
FE
3C
ENDCHAR
STARTCHAR divide
ENCODING 247
SWIDTH 418 0
DWIDTH 8 0
BBX 7 7 1 0
BITMAP
30
10
FE
00
FE
10
30
ENDCHAR
STARTCHAR oslash
ENCODING 248
SWIDTH 494 0
DWIDTH 10 0
BBX 8 8 1 0
BITMAP
3D
FA
C5
CB
D3
A3
5E
BC
ENDCHAR
STARTCHAR ugrave
ENCODING 249
SWIDTH 400 0
DWIDTH 8 0
BBX 6 11 1 0
BITMAP
60
20
00
CC
CC
CC
CC
CC
CC
B4
78
ENDCHAR
STARTCHAR uacute
ENCODING 250
SWIDTH 400 0
DWIDTH 8 0
BBX 6 11 1 0
BITMAP
18
10
00
CC
CC
CC
CC
CC
CC
B4
78
ENDCHAR
STARTCHAR ucircumflex
ENCODING 251
SWIDTH 400 0
DWIDTH 8 0
BBX 6 11 1 0
BITMAP
20
58
00
CC
CC
CC
CC
CC
CC
B4
78
ENDCHAR
STARTCHAR udieresis
ENCODING 252
SWIDTH 400 0
DWIDTH 8 0
BBX 6 11 1 0
BITMAP
48
00
00
CC
CC
CC
CC
CC
CC
B4
78
ENDCHAR
STARTCHAR yacute
ENCODING 253
SWIDTH 422 0
DWIDTH 8 0
BBX 8 11 0 0
BITMAP
04
08
00
A7
56
2A
3C
00
18
18
18
ENDCHAR
STARTCHAR thorn
ENCODING 254
SWIDTH 412 0
DWIDTH 8 0
BBX 7 8 1 0
BITMAP
C0
F8
C4
FA
FA
C4
F8
C0
ENDCHAR
STARTCHAR ydieresis
ENCODING 255
SWIDTH 422 0
DWIDTH 8 0
BBX 8 11 0 0
BITMAP
34
00
00
A7
56
2A
3C
00
18
18
18
ENDCHAR
STARTCHAR Edotaccent
ENCODING 278
SWIDTH 677 0
DWIDTH 14 0
BBX 12 19 1 0
BITMAP
0200
0300
0000
EFF0
EFF0
E000
EFF0
E000
E000
EFE0
E000
EFE0
EFE0
E000
E000
E000
EFF0
EFF0
EFF0
ENDCHAR
STARTCHAR edotaccent
ENCODING 279
SWIDTH 363 0
DWIDTH 7 0
BBX 6 11 1 0
BITMAP
30
30
00
FC
FC
C0
F8
F8
C0
FC
FC
ENDCHAR
STARTCHAR dotlessi
ENCODING 305
SWIDTH 176 0
DWIDTH 4 0
BBX 2 8 1 0
BITMAP
C0
C0
C0
C0
C0
C0
C0
C0
ENDCHAR
STARTCHAR OE
ENCODING 338
SWIDTH 1221 0
DWIDTH 24 0
BBX 23 16 1 0
BITMAP
0FEDFE
17EDFE
382C00
67EDFE
A82C00
D02C00
E02DFC
E02C00
E02DFC
E02DFC
E02C00
B02C00
682C00
3FEDFE
17EDFE
0FEDFE
ENDCHAR
STARTCHAR oe
ENCODING 339
SWIDTH 637 0
DWIDTH 13 0
BBX 11 8 1 0
BITMAP
7DE0
BDE0
C600
C5E0
C5E0
C600
BDE0
7DE0
ENDCHAR
STARTCHAR Wcircumflex
ENCODING 372
SWIDTH 972 0
DWIDTH 19 0
BBX 19 21 0 0
BITMAP
00E000
015000
02A800
051C00
000000
B0B160
70D1A0
68E1A0
6971C0
5972C0
39AB40
35DB40
36DB80
2EDB80
1D7680
1BB680
1BAF00
169D00
0E9B00
0D1A00
0D1600
ENDCHAR
STARTCHAR wcircumflex
ENCODING 373
SWIDTH 521 0
DWIDTH 10 0
BBX 10 11 0 0
BITMAP
0800
1200
0000
CCC0
ACC0
6F40
7780
5580
5D80
3B00
3300
ENDCHAR
STARTCHAR Ycircumflex
ENCODING 374
SWIDTH 769 0
DWIDTH 15 0
BBX 15 21 0 0
BITMAP
0380
0540
0AA0
1470
0000
B81E
582C
3454
2A68
16B0
0D50
0B60
05A0
0040
0340
0340
0340
0340
0340
0340
0340
ENDCHAR
STARTCHAR ycircumflex
ENCODING 375
SWIDTH 422 0
DWIDTH 8 0
BBX 8 11 0 0
BITMAP
10
24
00
A7
56
2A
3C
00
18
18
18
ENDCHAR
STARTCHAR Ydieresis
ENCODING 376
SWIDTH 769 0
DWIDTH 15 0
BBX 15 21 0 0
BITMAP
0C70
1290
1290
0C70
0000
B81E
582C
3454
2A68
16B0
0D50
0B60
05A0
0040
0340
0340
0340
0340
0340
0340
0340
ENDCHAR
STARTCHAR circumflex
ENCODING 710
SWIDTH 298 0
DWIDTH 6 0
BBX 4 2 1 9
BITMAP
40
B0
ENDCHAR
STARTCHAR dotaccent
ENCODING 729
SWIDTH 212 0
DWIDTH 4 0
BBX 2 2 1 9
BITMAP
C0
C0
ENDCHAR
STARTCHAR ring
ENCODING 730
SWIDTH 212 0
DWIDTH 4 0
BBX 2 3 1 9
BITMAP
C0
C0
C0
ENDCHAR
STARTCHAR tilde
ENCODING 732
SWIDTH 329 0
DWIDTH 7 0
BBX 5 2 1 9
BITMAP
C8
B0
ENDCHAR
STARTCHAR gravecomb
ENCODING 768
SWIDTH 0 0
DWIDTH 0 0
BBX 2 2 1 9
BITMAP
80
40
ENDCHAR
STARTCHAR acutecomb
ENCODING 769
SWIDTH 0 0
DWIDTH 0 0
BBX 2 2 1 9
BITMAP
40
80
ENDCHAR
STARTCHAR uni0302
ENCODING 770
SWIDTH 0 0
DWIDTH 0 0
BBX 4 2 1 9
BITMAP
40
B0
ENDCHAR
STARTCHAR tildecomb
ENCODING 771
SWIDTH 0 0
DWIDTH 0 0
BBX 5 2 1 9
BITMAP
C8
B0
ENDCHAR
STARTCHAR uni0307
ENCODING 775
SWIDTH 0 0
DWIDTH 0 0
BBX 2 2 1 9
BITMAP
C0
C0
ENDCHAR
STARTCHAR uni0308
ENCODING 776
SWIDTH 0 0
DWIDTH 0 0
BBX 4 1 1 10
BITMAP
B0
ENDCHAR
STARTCHAR uni030A
ENCODING 778
SWIDTH 0 0
DWIDTH 0 0
BBX 2 3 1 9
BITMAP
C0
C0
C0
ENDCHAR
STARTCHAR uni0327
ENCODING 807
SWIDTH 0 0
DWIDTH 0 0
BBX 3 4 1 -4
BITMAP
40
E0
20
E0
ENDCHAR
STARTCHAR Wgrave
ENCODING 7808
SWIDTH 972 0
DWIDTH 19 0
BBX 19 21 0 0
BITMAP
01C000
00A000
006000
005000
002000
B0B160
70D1A0
68E1A0
6971C0
5972C0
39AB40
35DB40
36DB80
2EDB80
1D7680
1BB680
1BAF00
169D00
0E9B00
0D1A00
0D1600
ENDCHAR
STARTCHAR wgrave
ENCODING 7809
SWIDTH 521 0
DWIDTH 10 0
BBX 10 11 0 0
BITMAP
0800
0400
0000
CCC0
ACC0
6F40
7780
5580
5D80
3B00
3300
ENDCHAR
STARTCHAR Wacute
ENCODING 7810
SWIDTH 972 0
DWIDTH 19 0
BBX 19 21 0 0
BITMAP
005000
006000
00A000
014000
000000
B0B160
70D1A0
68E1A0
6971C0
5972C0
39AB40
35DB40
36DB80
2EDB80
1D7680
1BB680
1BAF00
169D00
0E9B00
0D1A00
0D1600
ENDCHAR
STARTCHAR wacute
ENCODING 7811
SWIDTH 521 0
DWIDTH 10 0
BBX 10 11 0 0
BITMAP
0400
0800
0000
CCC0
ACC0
6F40
7780
5580
5D80
3B00
3300
ENDCHAR
STARTCHAR Wdieresis
ENCODING 7812
SWIDTH 972 0
DWIDTH 19 0
BBX 19 21 0 0
BITMAP
031C00
04A400
04A400
031C00
000000
B0B160
70D1A0
68E1A0
6971C0
5972C0
39AB40
35DB40
36DB80
2EDB80
1D7680
1BB680
1BAF00
169D00
0E9B00
0D1A00
0D1600
ENDCHAR
STARTCHAR wdieresis
ENCODING 7813
SWIDTH 521 0
DWIDTH 10 0
BBX 10 11 0 0
BITMAP
1A00
0000
0000
CCC0
ACC0
6F40
7780
5580
5D80
3B00
3300
ENDCHAR
STARTCHAR uni1E9E
ENCODING 7838
SWIDTH 784 0
DWIDTH 16 0
BBX 14 16 1 0
BITMAP
EFF0
EFF0
E000
EFF0
E0D0
E160
E1A0
E2D0
E378
E4B4
E02C
E01C
E02C
E7D4
E7E8
E7F0
ENDCHAR
STARTCHAR Ygrave
ENCODING 7922
SWIDTH 769 0
DWIDTH 15 0
BBX 15 21 0 0
BITMAP
0700
0280
0180
0140
0000
B81E
582C
3454
2A68
16B0
0D50
0B60
05A0
0040
0340
0340
0340
0340
0340
0340
0340
ENDCHAR
STARTCHAR ygrave
ENCODING 7923
SWIDTH 422 0
DWIDTH 8 0
BBX 8 11 0 0
BITMAP
10
08
00
A7
56
2A
3C
00
18
18
18
ENDCHAR
STARTCHAR endash
ENCODING 8211
SWIDTH 507 0
DWIDTH 10 0
BBX 8 2 1 3
BITMAP
FF
FF
ENDCHAR
STARTCHAR emdash
ENCODING 8212
SWIDTH 552 0
DWIDTH 11 0
BBX 9 2 1 3
BITMAP
FF80
FF80
ENDCHAR
STARTCHAR quoteleft
ENCODING 8216
SWIDTH 146 0
DWIDTH 3 0
BBX 2 3 0 5
BITMAP
80
C0
C0
ENDCHAR
STARTCHAR quoteright
ENCODING 8217
SWIDTH 146 0
DWIDTH 3 0
BBX 2 3 0 5
BITMAP
C0
40
40
ENDCHAR
STARTCHAR quotesinglbase
ENCODING 8218
SWIDTH 146 0
DWIDTH 3 0
BBX 2 2 0 -3
BITMAP
C0
40
ENDCHAR
STARTCHAR quotedblleft
ENCODING 8220
SWIDTH 297 0
DWIDTH 6 0
BBX 5 3 0 5
BITMAP
90
B8
B8
ENDCHAR
STARTCHAR quotedblright
ENCODING 8221
SWIDTH 297 0
DWIDTH 6 0
BBX 5 3 0 5
BITMAP
B8
28
28
ENDCHAR
STARTCHAR quotedblbase
ENCODING 8222
SWIDTH 297 0
DWIDTH 6 0
BBX 5 2 0 -3
BITMAP
B8
28
ENDCHAR
STARTCHAR bullet
ENCODING 8226
SWIDTH 302 0
DWIDTH 6 0
BBX 4 4 1 2
BITMAP
60
90
90
60
ENDCHAR
STARTCHAR ellipsis
ENCODING 8230
SWIDTH 528 0
DWIDTH 11 0
BBX 9 2 1 0
BITMAP
D980
D980
ENDCHAR
STARTCHAR guilsinglleft
ENCODING 8249
SWIDTH 178 0
DWIDTH 4 0
BBX 2 4 1 2
BITMAP
C0
40
80
40
ENDCHAR
STARTCHAR guilsinglright
ENCODING 8250
SWIDTH 178 0
DWIDTH 4 0
BBX 2 4 1 2
BITMAP
80
C0
40
80
ENDCHAR
STARTCHAR fraction
ENCODING 8260
SWIDTH 362 0
DWIDTH 7 0
BBX 7 8 0 0
BITMAP
0A
0C
14
18
28
30
60
A0
ENDCHAR
STARTCHAR uni2074
ENCODING 8308
SWIDTH 204 0
DWIDTH 4 0
BBX 2 4 1 4
BITMAP
C0
80
C0
C0
ENDCHAR
STARTCHAR Euro
ENCODING 8364
SWIDTH 462 0
DWIDTH 9 0
BBX 9 8 0 0
BITMAP
1F00
2E80
5100
F800
F800
5100
2E80
1F00
ENDCHAR
STARTCHAR trademark
ENCODING 8482
SWIDTH 461 0
DWIDTH 9 0
BBX 8 4 0 4
BITMAP
ED
4B
49
49
ENDCHAR
STARTCHAR minus
ENCODING 8722
SWIDTH 420 0
DWIDTH 8 0
BBX 7 2 1 3
BITMAP
FE
FE
ENDCHAR
STARTCHAR uni2215
ENCODING 8725
SWIDTH 278 0
DWIDTH 6 0
BBX 4 8 1 0
BITMAP
30
30
50
60
60
A0
C0
C0
ENDCHAR
STARTCHAR .notdef
ENCODING -1
SWIDTH 500 0
DWIDTH 10 0
BBX 8 23 1 -5
BITMAP
FF
81
81
81
81
81
81
81
81
81
81
81
81
81
81
81
81
81
81
81
81
81
FF
ENDCHAR
STARTCHAR NULL
ENCODING -1
SWIDTH 600 0
DWIDTH 12 0
BBX 1 1 0 0
BITMAP
00
ENDCHAR
STARTCHAR acutecomb.case
ENCODING -1
SWIDTH 0 0
DWIDTH 0 0
BBX 5 4 1 17
BITMAP
38
50
60
A0
ENDCHAR
STARTCHAR ampersand.case
ENCODING -1
SWIDTH 797 0
DWIDTH 16 0
BBX 14 16 1 0
BITMAP
0F80
1740
2EA0
3960
3960
36A0
2B40
3A80
4D10
AAA8
D5B4
E2D8
E1B0
BF50
5EB0
3F58
ENDCHAR
STARTCHAR asciicircum.case
ENCODING -1
SWIDTH 540 0
DWIDTH 11 0
BBX 10 8 0 8
BITMAP
0400
0A00
0E00
1B00
2B00
3180
5140
E0C0
ENDCHAR
STARTCHAR asciitilde.case
ENCODING -1
SWIDTH 640 0
DWIDTH 13 0
BBX 11 5 1 6
BITMAP
7820
87C0
7820
FFE0
83C0
ENDCHAR
STARTCHAR asterisk.case
ENCODING -1
SWIDTH 482 0
DWIDTH 10 0
BBX 8 7 1 9
BITMAP
18
18
E6
C3
24
5A
24
ENDCHAR
STARTCHAR at.case
ENCODING -1
SWIDTH 915 0
DWIDTH 18 0
BBX 17 16 1 0
BITMAP
07F000
1BEC00
2C1A00
53F500
643300
ABF300
CC3280
CC3280
CC3280
CC3280
A7ED00
63E100
501E00
2C1000
1BE800
07F000
ENDCHAR
STARTCHAR backslash.case
ENCODING -1
SWIDTH 504 0
DWIDTH 10 0
BBX 10 18 0 -1
BITMAP
B000
7000
6800
5800
3800
3400
2C00
1C00
1A00
1600
0E00
0D00
0B00
0700
0680
0580
0340
0340
ENDCHAR
STARTCHAR bar.case
ENCODING -1
SWIDTH 262 0
DWIDTH 5 0
BBX 3 18 1 -1
BITMAP
E0
E0
E0
E0
E0
E0
E0
E0
E0
E0
E0
E0
E0
E0
E0
E0
E0
E0
ENDCHAR
STARTCHAR braceleft.case
ENCODING -1
SWIDTH 504 0
DWIDTH 10 0
BBX 8 18 1 -1
BITMAP
2F
2F
2C
2F
2C
2C
2C
2C
EC
EC
EC
2C
2C
2C
2C
2F
2F
2F
ENDCHAR
STARTCHAR braceright.case
ENCODING -1
SWIDTH 506 0
DWIDTH 10 0
BBX 8 18 1 -1
BITMAP
EC
EC
EC
2C
2C
2C
2C
2F
2F
2F
2C
2C
2C
2C
EC
2C
EC
EC
ENDCHAR
STARTCHAR bracketleft.case
ENCODING -1
SWIDTH 453 0
DWIDTH 9 0
BBX 7 18 1 -1
BITMAP
EE
EE
E0
EE
E0
E0
E0
E0
E0
E0
E0
E0
E0
E0
E0
EE
EE
EE
ENDCHAR
STARTCHAR bracketright.case
ENCODING -1
SWIDTH 453 0
DWIDTH 9 0
BBX 7 18 1 -1
BITMAP
EE
EE
EE
0E
0E
0E
0E
0E
0E
0E
0E
0E
0E
0E
EE
0E
EE
EE
ENDCHAR
STARTCHAR brokenbar.case
ENCODING -1
SWIDTH 262 0
DWIDTH 5 0
BBX 3 18 1 0
BITMAP
E0
E0
E0
E0
E0
E0
E0
E0
00
00
E0
E0
E0
E0
E0
E0
E0
E0
ENDCHAR
STARTCHAR bullet.case
ENCODING -1
SWIDTH 503 0
DWIDTH 10 0
BBX 8 8 1 4
BITMAP
3C
5A
A5
C3
C3
A5
5A
3C
ENDCHAR
STARTCHAR uni0327.case
ENCODING -1
SWIDTH 0 0
DWIDTH 0 0
BBX 4 5 1 -5
BITMAP
20
70
90
10
F0
ENDCHAR
STARTCHAR cent.case
ENCODING -1
SWIDTH 577 0
DWIDTH 12 0
BBX 10 18 1 -1
BITMAP
0A00
0A00
0A00
1F00
2080
4F40
BE80
D100
E000
E000
D100
BE80
4F40
2080
1F00
0A00
0A00
0A00
ENDCHAR
STARTCHAR uni0302.case
ENCODING -1
SWIDTH 0 0
DWIDTH 0 0
BBX 8 4 1 17
BITMAP
18
32
56
A3
ENDCHAR
STARTCHAR colon.case
ENCODING -1
SWIDTH 262 0
DWIDTH 5 0
BBX 3 10 1 0
BITMAP
E0
E0
E0
00
00
00
00
E0
E0
E0
ENDCHAR
STARTCHAR comma.case
ENCODING -1
SWIDTH 338 0
DWIDTH 7 0
BBX 5 5 1 -2
BITMAP
68
68
70
B0
D0
ENDCHAR
STARTCHAR copyright.case
ENCODING -1
SWIDTH 895 0
DWIDTH 18 0
BBX 16 16 1 0
BITMAP
0FE0
17F8
2814
500A
A3C5
C5F3
CE23
CC03
CC03
CE23
C5F3
A3C5
500A
2814
17F8
0FE0
ENDCHAR
STARTCHAR currency.case
ENCODING -1
SWIDTH 676 0
DWIDTH 14 0
BBX 12 11 1 1
BITMAP
2040
D0F0
AFA0
56C0
2980
3180
2980
56A0
AF70
50A0
6040
ENDCHAR
STARTCHAR degree.case
ENCODING -1
SWIDTH 413 0
DWIDTH 8 0
BBX 7 7 1 9
BITMAP
78
B4
CA
C6
CA
B4
78
ENDCHAR
STARTCHAR uni0308.case
ENCODING -1
SWIDTH 0 0
DWIDTH 0 0
BBX 9 4 1 17
BITMAP
6300
9480
9480
6300
ENDCHAR
STARTCHAR divide.case
ENCODING -1
SWIDTH 618 0
DWIDTH 12 0
BBX 10 10 1 3
BITMAP
0400
0A00
0400
0000
FFC0
FFC0
FFC0
0400
0A00
0400
ENDCHAR
STARTCHAR uni2215.case
ENCODING -1
SWIDTH 483 0
DWIDTH 10 0
BBX 9 16 0 0
BITMAP
0580
0680
0700
0B00
0D00
0E00
1600
1A00
1C00
2C00
3400
3800
5800
6800
7000
B000
ENDCHAR
STARTCHAR dollar.case
ENCODING -1
SWIDTH 660 0
DWIDTH 13 0
BBX 12 18 1 -1
BITMAP
0A00
1B00
6AC0
BBA0
DB60
EAC0
D200
AE00
5D80
3BE0
0760
0AD0
6AD0
DB50
BBA0
6AC0
1B00
0A00
ENDCHAR
STARTCHAR eight.case
ENCODING -1
SWIDTH 561 0
DWIDTH 11 0
BBX 10 16 1 0
BITMAP
3E00
5D00
BF80
E340
E340
E340
DD80
BB80
E680
DD80
E340
E340
E340
BF80
5D00
3E00
ENDCHAR
STARTCHAR ellipsis.case
ENCODING -1
SWIDTH 766 0
DWIDTH 15 0
BBX 13 3 1 0
BITMAP
E738
E738
E738
ENDCHAR
STARTCHAR emdash.case
ENCODING -1
SWIDTH 790 0
DWIDTH 16 0
BBX 14 3 1 6
BITMAP
FFFC
FFFC
FFFC
ENDCHAR
STARTCHAR endash.case
ENCODING -1
SWIDTH 721 0
DWIDTH 14 0
BBX 12 3 1 6
BITMAP
FFF0
FFF0
FFF0
ENDCHAR
STARTCHAR equal.case
ENCODING -1
SWIDTH 618 0
DWIDTH 12 0
BBX 10 9 1 3
BITMAP
FFC0
FFC0
0000
FFC0
0000
FFC0
0000
FFC0
FFC0
ENDCHAR
STARTCHAR Euro.case
ENCODING -1
SWIDTH 767 0
DWIDTH 15 0
BBX 15 16 0 0
BITMAP
03F8
05F4
0FEE
1A18
2C00
3400
FFC0
0000
FFC0
FFC0
3400
2C00
1A18
0FEE
05F4
03F8
ENDCHAR
STARTCHAR exclam.case
ENCODING -1
SWIDTH 262 0
DWIDTH 5 0
BBX 3 16 1 0
BITMAP
E0
E0
E0
E0
E0
E0
E0
E0
E0
E0
E0
E0
00
E0
E0
E0
ENDCHAR
STARTCHAR exclamdown.case
ENCODING -1
SWIDTH 262 0
DWIDTH 5 0
BBX 3 16 1 -4
BITMAP
E0
E0
E0
00
E0
E0
E0
E0
E0
E0
E0
E0
E0
E0
E0
E0
ENDCHAR
STARTCHAR five.case
ENCODING -1
SWIDTH 558 0
DWIDTH 11 0
BBX 10 16 1 0
BITMAP
FF80
FF80
FF80
0000
E000
E000
EE00
E100
EE80
ED40
0340
E340
E340
BD80
5F00
3E00
ENDCHAR
STARTCHAR four.case
ENCODING -1
SWIDTH 585 0
DWIDTH 12 0
BBX 10 16 1 0
BITMAP
0F00
1600
1A00
1C00
3400
3800
5800
7000
B700
4700
F740
F740
0700
F740
0700
0700
ENDCHAR
STARTCHAR uni2074.case
ENCODING -1
SWIDTH 312 0
DWIDTH 6 0
BBX 5 7 1 9
BITMAP
50
60
A0
D8
D8
D8
18
ENDCHAR
STARTCHAR fraction.case
ENCODING -1
SWIDTH 655 0
DWIDTH 13 0
BBX 11 16 1 0
BITMAP
00E0
00C0
0140
0180
0280
0300
0500
0600
0A00
1400
1800
2800
3000
5000
6000
E000
ENDCHAR
STARTCHAR gravecomb.case
ENCODING -1
SWIDTH 0 0
DWIDTH 0 0
BBX 5 4 1 17
BITMAP
A0
60
50
38
ENDCHAR
STARTCHAR greater.case
ENCODING -1
SWIDTH 677 0
DWIDTH 14 0
BBX 12 14 1 1
BITMAP
8000
4000
F000
AC00
5B00
3680
0D60
0BD0
3480
5B00
AC00
D000
6000
8000
ENDCHAR
STARTCHAR guillemotleft.case
ENCODING -1
SWIDTH 666 0
DWIDTH 13 0
BBX 11 10 1 3
BITMAP
1820
2860
51A0
AAE0
51C0
A140
FAA0
5140
28E0
1820
ENDCHAR
STARTCHAR guillemotright.case
ENCODING -1
SWIDTH 666 0
DWIDTH 13 0
BBX 11 10 1 3
BITMAP
8100
E280
5140
AAE0
5140
68A0
B960
51A0
A2C0
C100
ENDCHAR
STARTCHAR guilsinglleft.case
ENCODING -1
SWIDTH 338 0
DWIDTH 7 0
BBX 5 10 1 3
BITMAP
18
28
50
A8
50
A0
F8
50
28
18
ENDCHAR
STARTCHAR guilsinglright.case
ENCODING -1
SWIDTH 338 0
DWIDTH 7 0
BBX 5 10 1 3
BITMAP
80
E0
50
A8
50
68
B8
50
A0
C0
ENDCHAR
STARTCHAR hyphen.case
ENCODING -1
SWIDTH 445 0
DWIDTH 9 0
BBX 7 3 1 6
BITMAP
FE
FE
FE
ENDCHAR
STARTCHAR less.case
ENCODING -1
SWIDTH 677 0
DWIDTH 14 0
BBX 12 14 1 1
BITMAP
0010
0060
01B0
02D0
0F60
3480
EF00
5A00
3780
0D60
02D0
01B0
0060
0010
ENDCHAR
STARTCHAR logicalnot.case
ENCODING -1
SWIDTH 618 0
DWIDTH 12 0
BBX 10 8 1 2
BITMAP
FFC0
0000
FFC0
FFC0
0000
01C0
01C0
01C0
ENDCHAR
STARTCHAR uni00B5.case
ENCODING -1
SWIDTH 792 0
DWIDTH 16 0
BBX 14 20 1 -4
BITMAP
E070
E070
E070
E070
E070
E070
E070
E070
E070
E070
E070
E0B0
F0D8
EFA4
EF5C
EF8C
E000
E000
E000
E000
ENDCHAR
STARTCHAR minus.case
ENCODING -1
SWIDTH 618 0
DWIDTH 12 0
BBX 10 3 1 6
BITMAP
FFC0
FFC0
FFC0
ENDCHAR
STARTCHAR multiply.case
ENCODING -1
SWIDTH 580 0
DWIDTH 12 0
BBX 9 10 1 3
BITMAP
4100
6300
B680
4D00
1A00
3400
6B00
D580
6300
0100
ENDCHAR
STARTCHAR nine.case
ENCODING -1
SWIDTH 558 0
DWIDTH 11 0
BBX 10 16 1 0
BITMAP
3E00
5D00
BF80
E340
E340
E340
DF40
BF40
4340
3F40
0340
E340
E340
FF80
5D00
3E00
ENDCHAR
STARTCHAR numbersign.case
ENCODING -1
SWIDTH 776 0
DWIDTH 16 0
BBX 14 16 1 0
BITMAP
1A68
1A70
1C70
5DFC
2C00
6DFC
6FFC
3400
00E0
FEE8
FF68
FF78
01A0
69A0
69C0
71C0
ENDCHAR
STARTCHAR one.case
ENCODING -1
SWIDTH 378 0
DWIDTH 8 0
BBX 7 16 0 0
BITMAP
FA
FA
1A
FA
1A
1A
1A
1A
1A
1A
1A
1A
1A
1A
1A
1A
ENDCHAR
STARTCHAR onehalf.case
ENCODING -1
SWIDTH 735 0
DWIDTH 15 0
BBX 13 16 1 0
BITMAP
B050
B060
30A0
30C0
3140
3280
3300
0500
0600
0A70
0CE8
1428
1870
28A0
50F8
60F8
ENDCHAR
STARTCHAR onequarter.case
ENCODING -1
SWIDTH 722 0
DWIDTH 14 0
BBX 12 16 1 0
BITMAP
B050
B060
30A0
30C0
3140
3280
3300
0500
0600
0A70
0CA0
14C0
1970
29F0
51F0
6030
ENDCHAR
STARTCHAR uni00B9.case
ENCODING -1
SWIDTH 306 0
DWIDTH 6 0
BBX 4 7 1 9
BITMAP
B0
B0
30
30
30
30
30
ENDCHAR
STARTCHAR ordfeminine.case
ENCODING -1
SWIDTH 456 0
DWIDTH 9 0
BBX 7 7 1 9
BITMAP
28
38
54
6C
7C
BA
C6
ENDCHAR
STARTCHAR ordmasculine.case
ENCODING -1
SWIDTH 489 0
DWIDTH 10 0
BBX 8 8 1 8
BITMAP
3C
7A
C5
C3
C5
B9
42
3C
ENDCHAR
STARTCHAR paragraph.case
ENCODING -1
SWIDTH 893 0
DWIDTH 18 0
BBX 17 16 0 0
BITMAP
1FFF80
3FFF80
600000
AFFF80
B05980
B05980
6FD980
5FD980
205980
1FD980
005980
005980
005980
005980
005980
005980
ENDCHAR
STARTCHAR parenleft.case
ENCODING -1
SWIDTH 290 0
DWIDTH 6 0
BBX 5 18 1 -1
BITMAP
38
68
70
B0
D0
E0
E0
E0
E0
E0
E0
E0
E0
D0
B0
70
68
38
ENDCHAR
STARTCHAR parenright.case
ENCODING -1
SWIDTH 290 0
DWIDTH 6 0
BBX 6 18 -1 -1
BITMAP
F0
68
58
38
34
2C
1C
1C
1C
1C
1C
1C
2C
34
38
58
68
F0
ENDCHAR
STARTCHAR percent.case
ENCODING -1
SWIDTH 827 0
DWIDTH 17 0
BBX 16 16 0 0
BITMAP
3C0D
5A16
652A
A334
6558
5A68
3CB0
0160
0580
0A9C
0D3E
1663
1A63
3463
585E
E83C
ENDCHAR
STARTCHAR period.case
ENCODING -1
SWIDTH 262 0
DWIDTH 5 0
BBX 3 3 1 0
BITMAP
E0
E0
E0
ENDCHAR
STARTCHAR periodcentered.case
ENCODING -1
SWIDTH 262 0
DWIDTH 5 0
BBX 3 3 1 6
BITMAP
E0
E0
E0
ENDCHAR
STARTCHAR plus.case
ENCODING -1
SWIDTH 616 0
DWIDTH 12 0
BBX 10 10 1 3
BITMAP
1600
1600
1600
1600
F7C0
F7C0
F7C0
1600
1600
1600
ENDCHAR
STARTCHAR plusminus.case
ENCODING -1
SWIDTH 618 0
DWIDTH 12 0
BBX 10 14 1 0
BITMAP
1600
1600
1600
1600
F7C0
F7C0
F7C0
1600
1600
1600
0000
FFC0
FFC0
FFC0
ENDCHAR
STARTCHAR question.case
ENCODING -1
SWIDTH 598 0
DWIDTH 12 0
BBX 10 16 1 0
BITMAP
3F00
5E80
AD40
D2C0
E1C0
02C0
0540
0A80
1500
1600
1A00
1A00
0000
1A00
1A00
1A00
ENDCHAR
STARTCHAR questiondown.case
ENCODING -1
SWIDTH 598 0
DWIDTH 12 0
BBX 10 16 1 -4
BITMAP
1A00
1A00
1A00
0000
1600
1600
1A00
2C00
5400
A800
D000
E1C0
D2C0
AD40
5E80
3F00
ENDCHAR
STARTCHAR quotedbl.case
ENCODING -1
SWIDTH 464 0
DWIDTH 9 0
BBX 9 5 0 11
BITMAP
B580
B580
B580
B580
B580
ENDCHAR
STARTCHAR quotedblbase.case
ENCODING -1
SWIDTH 464 0
DWIDTH 9 0
BBX 9 5 0 -2
BITMAP
B580
B580
B580
3180
3180
ENDCHAR
STARTCHAR quotedblleft.case
ENCODING -1
SWIDTH 464 0
DWIDTH 9 0
BBX 9 5 0 11
BITMAP
A500
A500
B580
B580
B580
ENDCHAR
STARTCHAR quotedblright.case
ENCODING -1
SWIDTH 464 0
DWIDTH 9 0
BBX 9 5 0 11
BITMAP
B580
B580
B580
3180
3180
ENDCHAR
STARTCHAR quoteleft.case
ENCODING -1
SWIDTH 212 0
DWIDTH 4 0
BBX 4 5 0 11
BITMAP
A0
A0
B0
B0
B0
ENDCHAR
STARTCHAR quoteright.case
ENCODING -1
SWIDTH 212 0
DWIDTH 4 0
BBX 4 5 0 11
BITMAP
B0
B0
B0
30
30
ENDCHAR
STARTCHAR quotesinglbase.case
ENCODING -1
SWIDTH 212 0
DWIDTH 4 0
BBX 4 5 0 -2
BITMAP
B0
B0
B0
30
30
ENDCHAR
STARTCHAR quotesingle.case
ENCODING -1
SWIDTH 212 0
DWIDTH 4 0
BBX 4 5 0 11
BITMAP
B0
B0
B0
B0
B0
ENDCHAR
STARTCHAR registered.case
ENCODING -1
SWIDTH 895 0
DWIDTH 18 0
BBX 16 16 1 0
BITMAP
0FE0
17F8
2814
500A
A7E5
C7D3
C633
C7E3
C7C3
C6A3
C663
A655
500A
2814
17F8
0FE0
ENDCHAR
STARTCHAR uni030A.case
ENCODING -1
SWIDTH 0 0
DWIDTH 0 0
BBX 4 4 1 17
BITMAP
60
90
90
60
ENDCHAR
STARTCHAR section.case
ENCODING -1
SWIDTH 645 0
DWIDTH 13 0
BBX 11 20 1 -3
BITMAP
0F00
3FC0
6F60
B080
AC00
5B80
2740
5EA0
BD60
D160
D2A0
AD40
5F80
3340
0EA0
2160
DFA0
BE40
60C0
1F00
ENDCHAR
STARTCHAR semicolon.case
ENCODING -1
SWIDTH 338 0
DWIDTH 7 0
BBX 5 12 1 -2
BITMAP
58
58
58
00
00
00
00
68
68
70
B0
D0
ENDCHAR
STARTCHAR seven.case
ENCODING -1
SWIDTH 505 0
DWIDTH 10 0
BBX 8 16 1 0
BITMAP
FF
FF
00
FF
07
0B
0D
0E
16
1A
1C
2C
2C
34
38
58
ENDCHAR
STARTCHAR six.case
ENCODING -1
SWIDTH 558 0
DWIDTH 11 0
BBX 10 16 1 0
BITMAP
3E00
5F00
BD80
E340
E340
E000
EE00
E100
EE80
ED40
E340
E340
E340
BD80
5F00
3E00
ENDCHAR
STARTCHAR slash.case
ENCODING -1
SWIDTH 504 0
DWIDTH 10 0
BBX 10 18 0 -1
BITMAP
0340
0340
0580
0680
0700
0B00
0D00
0E00
1600
1A00
1C00
2C00
3400
3800
5800
6800
7000
B000
ENDCHAR
STARTCHAR uni00AD.case
ENCODING -1
SWIDTH 445 0
DWIDTH 9 0
BBX 7 3 1 6
BITMAP
FE
FE
FE
ENDCHAR
STARTCHAR sterling.case
ENCODING -1
SWIDTH 618 0
DWIDTH 12 0
BBX 12 16 0 0
BITMAP
1F80
2FE0
5F50
70B0
7000
5800
FF80
0000
FF80
FF80
0400
7800
2000
FFF0
FFF0
FFF0
ENDCHAR
STARTCHAR three.case
ENCODING -1
SWIDTH 558 0
DWIDTH 11 0
BBX 10 16 1 0
BITMAP
3E00
5F00
FD80
E340
E340
0340
0680
0100
0680
0540
0340
E340
E340
FD80
5F00
3E00
ENDCHAR
STARTCHAR threequarters.case
ENCODING -1
SWIDTH 722 0
DWIDTH 14 0
BBX 12 16 1 0
BITMAP
7050
E860
08A0
30C0
2940
EA80
7300
0500
0600
0A70
0CA0
14C0
1970
29F0
51F0
6030
ENDCHAR
STARTCHAR uni00B3.case
ENCODING -1
SWIDTH 332 0
DWIDTH 7 0
BBX 5 7 1 9
BITMAP
70
E8
08
30
28
E8
70
ENDCHAR
STARTCHAR tildecomb.case
ENCODING -1
SWIDTH 0 0
DWIDTH 0 0
BBX 8 3 1 17
BITMAP
61
91
8E
ENDCHAR
STARTCHAR trademark.case
ENCODING -1
SWIDTH 850 0
DWIDTH 17 0
BBX 16 8 0 8
BITMAP
FEC3
FEE7
28DB
28EF
28DB
28D3
28C3
28C3
ENDCHAR
STARTCHAR two.case
ENCODING -1
SWIDTH 558 0
DWIDTH 11 0
BBX 10 16 1 0
BITMAP
3E00
5D00
BF80
E340
E340
0340
0540
0A80
0B00
1500
2A00
5400
A800
FF80
FF80
FF80
ENDCHAR
STARTCHAR uni00B2.case
ENCODING -1
SWIDTH 339 0
DWIDTH 7 0
BBX 5 7 1 9
BITMAP
70
A8
58
30
E0
F8
F8
ENDCHAR
STARTCHAR underscore.case
ENCODING -1
SWIDTH 667 0
DWIDTH 13 0
BBX 11 3 1 0
BITMAP
FFE0
FFE0
FFE0
ENDCHAR
STARTCHAR yen.case
ENCODING -1
SWIDTH 769 0
DWIDTH 15 0
BBX 15 16 0 0
BITMAP
B81E
582C
3434
2C68
16B0
0D50
0B60
06A0
0540
0340
1B70
1B70
1B70
0340
0340
0340
ENDCHAR
STARTCHAR zero.case
ENCODING -1
SWIDTH 558 0
DWIDTH 11 0
BBX 10 16 1 0
BITMAP
3E00
5D00
BF80
E340
E340
E340
E340
E340
E340
E340
E340
E340
E340
BF80
5D00
3E00
ENDCHAR
ENDFONT
